<?xml version="1.0" encoding="utf-8"?>
<!-- Generator: Adobe Illustrator 19.1.0, SVG Export Plug-In . SVG Version: 6.00 Build 0)  -->
<svg version="1.1" id="Layer_1" xmlns="http://www.w3.org/2000/svg" xmlns:xlink="http://www.w3.org/1999/xlink" x="0px" y="0px"
	 viewBox="0 0 1029 155" style="enable-background:new 0 0 1029 155;" xml:space="preserve">
<style type="text/css">
	.st0{fill:#FFFFFF;}
	.st1{fill:#077678;}
</style>
<path class="st0" d="M193.4,111.5v-75H208v75H193.4z"/>
<path class="st0" d="M284.8,111.5V61.8l-19.4,37h-7.9l-19.4-37v49.7h-14.6V36.4h15.7l22.2,42.7l22.4-42.7h15.5v75.1H284.8z"/>
<path class="st0" d="M315.1,111.5V36.4h31.8c3.5,0,6.6,0.7,9.6,2.2c2.9,1.4,5.4,3.3,7.6,5.7c2.1,2.4,3.8,5,5,8c1.2,3,1.8,6,1.8,9
	c0,3.2-0.6,6.3-1.7,9.3c-1.1,3-2.7,5.7-4.8,8c-2,2.3-4.5,4.2-7.4,5.6c-2.9,1.4-6.1,2.1-9.5,2.1h-17.8v25.2H315.1z M329.7,73.5h16.9
	c2.7,0,4.9-1.1,6.7-3.3s2.7-5.1,2.7-8.9c0-1.9-0.3-3.6-0.8-5.1c-0.6-1.5-1.3-2.8-2.2-3.9c-0.9-1.1-2-1.8-3.2-2.4
	c-1.2-0.5-2.5-0.8-3.8-0.8h-16.3V73.5z"/>
<path class="st0" d="M442.3,73.4c0-4.6,0.8-9.1,2.4-13.6c1.6-4.5,4-8.5,7-12c3.1-3.5,6.8-6.4,11.3-8.6c4.4-2.2,9.5-3.3,15.2-3.3
	c6.7,0,12.5,1.5,17.4,4.5c4.9,3,8.5,7,10.8,11.8l-11.2,7.7c-0.8-2.1-1.9-3.9-3.3-5.3c-1.3-1.4-2.8-2.6-4.4-3.4s-3.2-1.5-4.9-1.9
	c-1.7-0.4-3.3-0.6-4.9-0.6c-3.5,0-6.5,0.7-9.1,2.2c-2.6,1.5-4.8,3.4-6.5,5.8c-1.7,2.4-3,5-3.9,8c-0.9,3-1.3,6-1.3,8.9
	c0,3.3,0.5,6.5,1.5,9.6c1,3.1,2.5,5.8,4.3,8.1c1.9,2.3,4.1,4.2,6.7,5.6c2.6,1.4,5.5,2.1,8.6,2.1c1.6,0,3.3-0.2,5-0.6
	c1.7-0.4,3.3-1.1,4.9-2c1.6-0.9,3-2.1,4.4-3.5c1.3-1.4,2.4-3.2,3.3-5.2l11.9,6.9c-1.1,2.8-2.8,5.3-4.9,7.5c-2.2,2.2-4.6,4-7.3,5.4
	c-2.7,1.5-5.6,2.6-8.7,3.4s-6,1.2-9,1.2c-5.2,0-10-1.1-14.3-3.4c-4.3-2.3-8.1-5.2-11.2-8.8c-3.1-3.6-5.6-7.8-7.3-12.4
	C443.2,82.9,442.3,78.2,442.3,73.4z"/>
<path class="st0" d="M573.3,49.2h-23.9v62.3h-14.6V49.2h-24V36.4h62.5V49.2z"/>
<g>
	<path class="st0" d="M669.1,112.1V62.4l-19.4,37h-7.9l-19.4-37v49.7h-14.6V37h15.7l22.2,42.7L668.1,37h15.5v75.1H669.1z"/>
	<path class="st0" d="M691.7,112.1L721.3,37h11.8l29.5,75.1h-15.4l-6.9-18.7H714l-6.9,18.7H691.7z M727.2,52.8l-10.8,30.4h21.3
		L727.2,52.8z"/>
	<path class="st0" d="M770.7,112.1V37h31.8c3.5,0,6.6,0.7,9.6,2.2c2.9,1.4,5.4,3.3,7.6,5.7c2.1,2.4,3.8,5,5,8c1.2,3,1.8,6,1.8,9
		c0,3.2-0.6,6.3-1.7,9.3c-1.1,3-2.7,5.7-4.8,8c-2,2.3-4.5,4.2-7.4,5.6c-2.9,1.4-6.1,2.1-9.5,2.1h-17.8v25.2H770.7z M785.3,74.1h16.9
		c2.7,0,4.9-1.1,6.7-3.3c1.8-2.2,2.7-5.1,2.7-8.9c0-1.9-0.3-3.6-0.8-5.1c-0.6-1.5-1.3-2.8-2.2-3.9c-0.9-1.1-2-1.9-3.2-2.4
		c-1.2-0.5-2.5-0.8-3.8-0.8h-16.3V74.1z"/>
	<path class="st0" d="M836.4,112.1V37h31.8c3.5,0,6.6,0.7,9.6,2.2c2.9,1.4,5.4,3.3,7.6,5.7c2.1,2.4,3.8,5,5,8s1.8,6,1.8,9
		c0,3.2-0.6,6.3-1.7,9.3c-1.1,3-2.7,5.7-4.8,8c-2,2.3-4.5,4.2-7.4,5.6c-2.9,1.4-6.1,2.1-9.5,2.1H851v25.2H836.4z M851,74.1h16.9
		c2.7,0,4.9-1.1,6.7-3.3c1.8-2.2,2.7-5.1,2.7-8.9c0-1.9-0.3-3.6-0.8-5.1c-0.6-1.5-1.3-2.8-2.2-3.9c-0.9-1.1-2-1.9-3.2-2.4
		c-1.2-0.5-2.5-0.8-3.8-0.8H851V74.1z"/>
	<path class="st0" d="M954.2,99.3v12.8H902V37h51.2v12.8h-36.6v18.1h31.6v11.8h-31.6v19.6H954.2z"/>
	<path class="st0" d="M965.9,112.1V37h33.2c3.5,0,6.6,0.7,9.6,2.2c2.9,1.4,5.4,3.3,7.6,5.7c2.1,2.4,3.8,5,5,8c1.2,3,1.8,6,1.8,9
		c0,4.9-1.2,9.3-3.6,13.3c-2.4,4-5.7,6.9-9.9,8.6l17.7,28.2h-16.5l-15.8-25.2h-14.4v25.2H965.9z M980.5,74.1h18.3
		c1.3,0,2.6-0.3,3.8-1c1.2-0.6,2.2-1.5,3-2.6c0.8-1.1,1.5-2.4,2-3.9c0.5-1.5,0.7-3.1,0.7-4.8c0-1.8-0.3-3.4-0.8-4.9
		c-0.6-1.5-1.3-2.8-2.3-3.9c-1-1.1-2-1.9-3.3-2.5c-1.2-0.6-2.5-0.9-3.8-0.9h-17.7V74.1z"/>
</g>
<path class="st0" d="M371.8,100.5l-4.4,11.6h4.8h5.3h46.6h5.1h12.1L413.1,37h-7.2h-10L371.8,100.5 M380.9,102.6l19.9-53.1l19.8,53.1
	H380.9z"/>
<circle class="st1" cx="77.5" cy="77.5" r="75.6"/>
<path class="st0" d="M41.5,103.6l-5,13.2h5.5h6h52.7h5.7h13.7l-31.9-85H80H68.7L41.5,103.6 M51.8,106.7l22.6-60.1l22.4,60.1H51.8z"
	/>
</svg>
